<svg width="43" height="46" viewBox="0 0 43 46" fill="none" xmlns="http://www.w3.org/2000/svg">
<g clip-path="url(#clip0_62_179)">
<path d="M33.75 2.5415H9.25C6.93021 2.54448 4.70623 3.53316 3.06588 5.29067C1.42554 7.04817 0.502779 9.43101 0.5 11.9165L0.5 34.4165C0.502779 36.902 1.42554 39.2848 3.06588 41.0423C4.70623 42.7999 6.93021 43.7885 9.25 43.7915H33.75C36.0698 43.7885 38.2938 42.7999 39.9341 41.0423C41.5745 39.2848 42.4972 36.902 42.5 34.4165V11.9165C42.4972 9.43101 41.5745 7.04817 39.9341 5.29067C38.2938 3.53316 36.0698 2.54448 33.75 2.5415ZM9.25 6.2915H33.75C34.7979 6.29371 35.8212 6.63184 36.6882 7.26239C37.5552 7.89293 38.2262 8.78703 38.615 9.82963L25.2135 24.1903C24.2273 25.2427 22.892 25.8336 21.5 25.8336C20.108 25.8336 18.7727 25.2427 17.7865 24.1903L4.385 9.82963C4.77376 8.78703 5.44482 7.89293 6.31183 7.26239C7.17884 6.63184 8.20213 6.29371 9.25 6.2915ZM33.75 40.0415H9.25C7.85761 40.0415 6.52226 39.4489 5.53769 38.394C4.55312 37.3391 4 35.9083 4 34.4165V14.729L15.312 26.8415C16.9546 28.597 19.1799 29.5828 21.5 29.5828C23.8201 29.5828 26.0454 28.597 27.688 26.8415L39 14.729V34.4165C39 35.9083 38.4469 37.3391 37.4623 38.394C36.4777 39.4489 35.1424 40.0415 33.75 40.0415Z" fill="#374957"/>
</g>
<defs>
<clipPath id="clip0_62_179">
<rect width="42" height="45" fill="white" transform="translate(0.5 0.666748)"/>
</clipPath>
</defs>
</svg>
