<svg width="50" height="50" viewBox="0 0 50 50" fill="none" xmlns="http://www.w3.org/2000/svg">
<g clip-path="url(#clip0_51_463)">
<path d="M25.7068 9.16958L29.7056 20.419L41.6288 20.734L43.7527 20.7925L42.0683 22.0815L32.5985 29.3541L35.9895 40.8013L36.59 42.83L34.8396 41.6362L24.9963 34.8763L15.1604 41.6362L13.41 42.8374L14.0105 40.8013L17.3942 29.3468L7.93174 22.0815L6.24725 20.7925L8.37117 20.734L20.3091 20.4117L24.2932 9.16958L25.0037 7.16284L25.7068 9.16958Z" fill="#FFF700"/>
<path d="M25.7068 9.16958L29.7056 20.419L41.6288 20.734L43.7527 20.7925L42.0683 22.0815L32.5985 29.3541L35.9895 40.8013L36.59 42.83L34.8396 41.6363L24.9963 34.8763V7.17749L25.7068 9.16958Z" fill="#FFF700"/>
</g>
<defs>
<clipPath id="clip0_51_463">
<rect width="50" height="50" fill="white"/>
</clipPath>
</defs>
</svg>
