<svg width="56" height="44" viewBox="0 0 56 44" fill="none" xmlns="http://www.w3.org/2000/svg">
<g clip-path="url(#clip0_62_183)">
<path d="M27.9035 43.3471L26.306 42.2766C24.1038 40.8349 4.87451 27.8511 4.87451 18.3539C4.87451 8.41027 15.185 0.349365 27.9035 0.349365C40.622 0.349365 50.9325 8.41027 50.9325 18.3539C50.9325 27.8512 31.7032 40.835 29.5101 42.2837L27.9035 43.3471ZM27.9035 4.24246C17.9398 4.25128 9.86544 10.564 9.85416 18.3538C9.85416 24.3202 21.6847 33.8514 27.9035 38.2138C34.1224 33.8496 45.9529 24.313 45.9529 18.3538C45.9416 10.564 37.8673 4.25136 27.9035 4.24246Z" fill="#374957"/>
<path d="M27.9038 25.49C22.8622 25.49 18.7753 22.2947 18.7753 18.3531C18.7753 14.4116 22.8622 11.2163 27.9038 11.2163C32.9453 11.2163 37.0323 14.4116 37.0323 18.3531C37.0323 22.2947 32.9454 25.49 27.9038 25.49ZM27.9038 14.7846C25.383 14.7846 23.3395 16.3823 23.3395 18.353C23.3395 20.3238 25.383 21.9215 27.9038 21.9215C30.4245 21.9215 32.468 20.3238 32.468 18.353C32.468 16.3823 30.4246 14.7846 27.9038 14.7846Z" fill="#374957"/>
</g>
<defs>
<clipPath id="clip0_62_183">
<rect width="55" height="43" fill="white" transform="translate(0.5 0.333252)"/>
</clipPath>
</defs>
</svg>
