<svg width="43" height="52" viewBox="0 0 43 52" fill="none" xmlns="http://www.w3.org/2000/svg">
<g clip-path="url(#clip0_62_175)">
<path d="M23.2498 2.16695C23.2498 1.59232 23.4342 1.04122 23.7624 0.634888C24.0906 0.228559 24.5357 0.000286269 24.9998 0.000286269C29.6395 0.00659473 34.0878 2.29135 37.3685 6.35327C40.6493 10.4152 42.4947 15.9225 42.4998 21.667C42.4998 22.2416 42.3154 22.7927 41.9872 23.199C41.6591 23.6053 41.2139 23.8336 40.7498 23.8336C40.2857 23.8336 39.8406 23.6053 39.5124 23.199C39.1842 22.7927 38.9998 22.2416 38.9998 21.667C38.9956 17.0715 37.5193 12.6656 34.8947 9.41614C32.2701 6.16662 28.7116 4.33878 24.9998 4.33362C24.5357 4.33362 24.0906 4.10535 23.7624 3.69902C23.4342 3.29269 23.2498 2.74159 23.2498 2.16695ZM24.9998 13.0003C26.8563 13.0003 28.6368 13.9134 29.9496 15.5387C31.2623 17.164 31.9998 19.3684 31.9998 21.667C31.9998 22.2416 32.1842 22.7927 32.5124 23.199C32.8406 23.6053 33.2857 23.8336 33.7498 23.8336C34.2139 23.8336 34.6591 23.6053 34.9873 23.199C35.3154 22.7927 35.4998 22.2416 35.4998 21.667C35.497 18.2202 34.3899 14.9156 32.4214 12.4784C30.4528 10.0411 27.7837 8.67039 24.9998 8.66695C24.5357 8.66695 24.0906 8.89523 23.7624 9.30156C23.4342 9.70788 23.2498 10.259 23.2498 10.8336C23.2498 11.4083 23.4342 11.9594 23.7624 12.3657C24.0906 12.772 24.5357 13.0003 24.9998 13.0003ZM40.9126 36.2681C41.9267 37.5272 42.4962 39.2328 42.4962 41.011C42.4962 42.7891 41.9267 44.4947 40.9126 45.7538L39.3201 48.0266C24.9876 65.0155 -9.88988 21.8446 3.6201 4.04329L5.6326 1.87662C6.65069 0.656087 8.01597 -0.0191074 9.43307 -0.00288824C10.8502 0.0133309 12.2051 0.71966 13.2048 1.96329C13.2591 2.03045 16.5018 7.24562 16.5018 7.24562C17.464 8.49715 17.9997 10.1596 17.9974 11.8875C17.9951 13.6154 17.4551 15.2757 16.4896 16.5233L14.4631 19.678C15.5846 23.0517 17.2334 26.1178 19.315 28.7002C21.3965 31.2825 23.8696 33.3301 26.5923 34.7255L29.1561 32.2013C30.1639 31.0068 31.5047 30.339 32.8998 30.3366C34.295 30.3342 35.6373 30.9973 36.6478 32.1883C36.6478 32.1883 40.8583 36.201 40.9126 36.2681ZM38.5046 39.4185C38.5046 39.4185 34.3168 35.4296 34.2626 35.3624C33.902 34.9199 33.4149 34.6715 32.9072 34.6715C32.3995 34.6715 31.9123 34.9199 31.5518 35.3624C31.5046 35.4231 27.9748 38.905 27.9748 38.905C27.737 39.1394 27.4539 39.293 27.1535 39.3508C26.853 39.4085 26.5456 39.3684 26.2616 39.2343C22.7344 37.6084 19.5306 35.0629 16.8673 31.7703C14.204 28.4777 12.1433 24.5149 10.8248 20.1503C10.7079 19.7938 10.6698 19.4051 10.7144 19.0244C10.759 18.6436 10.8847 18.2843 11.0786 17.9836C11.0786 17.9836 13.8908 13.6113 13.9381 13.555C14.2956 13.1086 14.4961 12.5055 14.4961 11.8769C14.4961 11.2483 14.2956 10.6452 13.9381 10.1988C13.8838 10.1338 10.6621 4.94462 10.6621 4.94462C10.2962 4.53839 9.8186 4.32083 9.32728 4.33654C8.83595 4.35225 8.36809 4.60004 8.01959 5.02912L6.0071 7.19579C-3.86639 21.8945 26.3578 57.2393 36.7616 45.067L38.3558 42.792C38.7294 42.3635 38.9538 41.772 38.9815 41.1425C39.0093 40.5129 38.8383 39.8947 38.5046 39.4185Z" fill="#7BB312"/>
</g>
<defs>
<clipPath id="clip0_62_175">
<rect width="42" height="52" fill="white" transform="translate(0.5)"/>
</clipPath>
</defs>
</svg>
