<svg width="25" height="24" viewBox="0 0 25 24" fill="none" xmlns="http://www.w3.org/2000/svg">
<path d="M3.5 3H3.76835C4.24213 3 4.47943 3 4.67267 3.08548C4.84304 3.16084 4.98871 3.28218 5.09375 3.43604C5.21269 3.61026 5.25564 3.8429 5.34137 4.30727L7.50004 16L17.9218 16C18.375 16 18.6023 16 18.79 15.9199C18.9559 15.8492 19.0989 15.7346 19.2051 15.5889C19.3252 15.4242 19.3761 15.2037 19.4777 14.7631L19.4785 14.76L21.0477 7.95996L21.0481 7.95854C21.2023 7.29016 21.2796 6.95515 21.1947 6.69238C21.1202 6.46182 20.9635 6.26634 20.7556 6.14192C20.5184 6 20.1758 6 19.4887 6H6M18.5 21C17.9477 21 17.5 20.5523 17.5 20C17.5 19.4477 17.9477 19 18.5 19C19.0523 19 19.5 19.4477 19.5 20C19.5 20.5523 19.0523 21 18.5 21ZM8.5 21C7.94772 21 7.5 20.5523 7.5 20C7.5 19.4477 7.94772 19 8.5 19C9.05228 19 9.5 19.4477 9.5 20C9.5 20.5523 9.05228 21 8.5 21Z" stroke="#141414" stroke-width="2" stroke-linecap="round" stroke-linejoin="round"/>
</svg>
